PathFileType	4	(X/Y/Z)	C:/Users/opensim2020/Desktop/walking_exp_matlab/subject03_walking14_straight_01.trc																																																																																																																																											
DataRate	CameraRate	NumFrames	NumMarkers	Units	OrigDataRate	OrigDataStartFrame	OrigNumFrames																																																																																																																																							
100	100	5	47	mm	100	629	205																																																																																																																																							
Frame#	Time	LFHD			RFHD			LBHD			RBHD			C7			T10			CLAV			STRN			RBAK			LSHO			LUPA			LELB			LFRM			LWRA			LWRB			LFIN			RSHO			RUPA			RELB			RFRM			RWRA			RWRB			RFIN			LASI			RASI			LPSI			RPSI			LTHI			LKNE			LTIB			LANK			LHEE			LTOE			RTHI			RKNE			RTIB			RANK			RHEE			RTOE			*39			*40			*41			*42			*43			*44			*45			*46		
		X1	Y1	Z1	X2	Y2	Z2	X3	Y3	Z3	X4	Y4	Z4	X5	Y5	Z5	X6	Y6	Z6	X7	Y7	Z7	X8	Y8	Z8	X9	Y9	Z9	X10	Y10	Z10	X11	Y11	Z11	X12	Y12	Z12	X13	Y13	Z13	X14	Y14	Z14	X15	Y15	Z15	X16	Y16	Z16	X17	Y17	Z17	X18	Y18	Z18	X19	Y19	Z19	X20	Y20	Z20	X21	Y21	Z21	X22	Y22	Z22	X23	Y23	Z23	X24	Y24	Z24	X25	Y25	Z25	X26	Y26	Z26	X27	Y27	Z27	X28	Y28	Z28	X29	Y29	Z29	X30	Y30	Z30	X31	Y31	Z31	X32	Y32	Z32	X33	Y33	Z33	X34	Y34	Z34	X35	Y35	Z35	X36	Y36	Z36	X37	Y37	Z37	X38	Y38	Z38	X39	Y39	Z39	X40	Y40	Z40	X41	Y41	Z41	X42	Y42	Z42	X43	Y43	Z43	X44	Y44	Z44	X45	Y45	Z45	X46	Y46	Z46	X47	Y47	Z47
																																																																																																																																														
154	1.53	582.74097	1609.79919	1381.19824	580.41278	1622.79114	1513.36462	457.56958	1560.01904	1387.97498	459.74622	1572.35986	1518.12524	435.18875	1400.59546	1449.86182	423.47491	1086.70117	1452.33411	561.10474	1333.64551	1455.74841	618.30493	1172.37195	1457.44568	392.32593	1223.13477	1548.39197	518.67145	1364.85791	1297.81323	503.9686	1165.95667	1228.15906	501.22446	1042.09863	1218.453	506.74817	911.37122	1217.9873	494.90726	790.18274	1245.30237	486.12833	801.58026	1189.22156	456.44818	717.27185	1198.62451	505.62061	1359.6156	1612.80762	527.05402	1144.77039	1697.91418	556.92316	1038.05005	1719.22559	607.23389	911.14594	1728.59827	666.44305	829.74609	1700.11438	632.21582	814.06793	1738.62146	680.00616	758.07361	1737.00476	604.10651	937.19202	1349.13916	578.28729	924.89447	1583.68542	436.6752	951.64935	1378.74292	421.77594	953.06482	1528.29932	609.25354	632.82483	1307.64307	658.07385	467.96759	1363.07825	614.96741	272.24628	1370.57092	588.17285	69.23873	1422.90698	544.67554	36.65486	1459.50525	737.28607	36.3361	1443.77795	520.34283	623.71356	1629.17798	536.37744	443.08301	1609.44006	386.46921	323.95135	1604.74194	215.08235	197.48067	1550.25012	172.27843	221.97922	1497.47058	247.00797	58.28812	1514.2655	496.11539	1668.703	1430.85925	NaN	NaN	NaN	NaN	NaN	NaN	NaN	NaN	NaN	NaN	NaN	NaN	NaN	NaN	NaN	NaN	NaN	NaN	NaN	NaN	NaN
155	1.54	595.59668	1610.65393	1380.66943	593.36084	1623.87512	1512.81104	470.40414	1560.92651	1387.56934	472.552	1573.54797	1517.66785	448.0748	1401.61804	1449.37671	436.73254	1087.38367	1451.79578	573.80988	1334.59973	1456.02197	631.19556	1173.43091	1458.06787	404.48199	1223.5509	1547.20203	532.23596	1365.14392	1297.75256	520.08661	1165.91138	1228.36755	518.70258	1042.13306	1218.20056	526.44202	911.50757	1218.11975	516.76947	790.43457	1245.78833	507.86111	801.3858	1189.66187	484.54913	715.93256	1198.89539	517.39331	1360.05945	1612.98096	537.69763	1144.75476	1697.80481	566.84937	1037.70715	1719.18787	614.96545	909.89667	1728.36926	672.58533	827.37604	1699.69714	638.15283	812.33209	1738.37561	684.06213	754.50391	1735.77673	617.20374	937.21741	1348.96423	590.36542	925.31128	1584.06604	450.0434	952.99805	1378.08264	434.44351	953.12427	1527.61902	615.94818	632.61707	1308.28735	663.93842	466.98688	1362.15613	617.93195	272.0542	1369.98059	588.33838	69.23878	1422.78918	544.74579	36.74861	1459.38452	737.35895	36.23941	1443.91895	538.46039	624.21448	1628.82056	562.03674	443.96298	1609.91479	412.09857	326.61639	1604.33875	238.45778	203.42223	1551.48584	195.37006	226.1665	1497.55493	271.85004	63.59402	1520.11572	510.47037	1671.31628	1425.96729	NaN	NaN	NaN	NaN	NaN	NaN	NaN	NaN	NaN	NaN	NaN	NaN	NaN	NaN	NaN	NaN	NaN	NaN	NaN	NaN	NaN
156	1.55	608.39221	1611.62488	1380.2063	606.23505	1625.1283	1512.27136	483.05554	1561.98828	1387.24902	485.29953	1574.89172	1517.21765	460.90601	1402.776	1448.93042	449.67801	1088.42651	1451.56665	586.33466	1335.70129	1456.29041	643.98175	1174.64136	1458.64636	416.54358	1224.01453	1545.83521	545.55585	1365.58203	1297.73438	536.38776	1166.16785	1228.59827	536.54523	1042.37048	1218.15137	546.32196	911.86749	1218.26367	539.03937	790.95636	1246.25574	529.97968	801.48358	1190.05811	513.52454	715.25201	1199.33862	529.07324	1360.57141	1613.25488	547.9762	1144.8302	1697.69543	576.06915	1037.24695	1718.9043	622.26929	908.66071	1728.01062	678.23242	824.8775	1699.08484	643.71936	810.64417	1738.16895	687.8042	751.04852	1734.40222	630.11591	937.63123	1348.7854	602.74188	925.87524	1584.38635	463.01981	954.57996	1377.78699	447.06387	953.70459	1527.19373	623.96887	633.23822	1308.39209	669.01648	466.71085	1362.0946	621.15009	271.7764	1369.70325	588.51428	69.34335	1422.5874	544.63751	36.8988	1459.1261	737.36279	36.11684	1444.24976	556.21875	625.65192	1628.77893	587.65729	446.21234	1610.59033	437.47937	329.72745	1604.3905	263.45615	207.38017	1552.66541	219.81996	228.39204	1497.60315	299.42215	67.80849	1526.18774	521.95496	1670.68091	1429.41809	NaN	NaN	NaN	NaN	NaN	NaN	NaN	NaN	NaN	NaN	NaN	NaN	NaN	NaN	NaN	NaN	NaN	NaN	NaN	NaN	NaN
157	1.56	621.11273	1612.6897	1379.74451	619.09814	1626.47107	1511.88843	495.68478	1563.29651	1387.00989	498.0051	1576.38196	1516.85461	473.68436	1404.1582	1448.69434	462.49377	1089.56543	1451.34302	598.78357	1336.95667	1456.63	656.65338	1175.99146	1459.21582	428.52524	1224.71936	1544.52551	558.66937	1366.17432	1297.80176	552.63239	1166.60168	1228.88977	554.36206	1042.82019	1218.33386	566.59619	912.55231	1218.66858	562.02863	791.7677	1246.30688	552.5946	801.90704	1190.65344	543.20135	715.56476	1199.85474	540.66711	1361.28918	1613.51306	558.01166	1145.10107	1697.61682	585.58252	1037.12097	1718.76135	629.31403	907.56287	1727.57971	683.44257	822.52631	1698.30371	649.02783	809.0896	1737.65735	691.1546	747.92102	1732.94531	642.79309	938.33624	1348.36316	615.42194	926.67828	1584.37061	475.02924	956.37799	1377.50769	459.78598	954.74475	1526.9657	632.76495	634.12067	1308.46704	674.40656	466.77469	1362.20593	624.32178	271.6008	1369.49902	588.64795	69.43622	1422.27417	544.51062	37.12612	1458.80896	737.39417	36.06927	1444.26477	574.92181	627.50293	1628.29126	612.71613	449.39212	1610.97559	463.24533	332.74121	1605.10938	289.59366	209.61787	1553.74841	245.21184	228.47832	1497.72742	328.62207	70.65889	1531.47742	534.85669	1672.03796	1429.05762	NaN	NaN	NaN	NaN	NaN	NaN	NaN	NaN	NaN	NaN	NaN	NaN	NaN	NaN	NaN	NaN	NaN	NaN	NaN	NaN	NaN
158	1.57	633.82739	1613.84241	1379.38818	631.90601	1627.84949	1511.41699	508.33493	1564.71924	1386.71619	510.64328	1578.00024	1516.52026	486.33423	1405.59607	1448.58093	475.26581	1090.88318	1451.11707	611.16144	1338.31445	1456.979	669.19067	1177.35559	1459.65149	440.55359	1225.53662	1543.26587	571.53894	1367.08203	1297.93262	568.82599	1167.25891	1229.63135	572.35718	1043.73633	1218.78674	587.01257	913.62573	1219.31396	585.0802	793.16504	1247.62207	575.36749	802.61511	1191.92004	573.4621	716.85577	1200.44409	552.1369	1362.20593	1613.72266	568.02631	1145.74304	1697.82397	594.53967	1037.01636	1718.21277	636.0766	906.67706	1726.97168	688.28387	820.44196	1697.41174	653.86627	807.82239	1737.05981	694.09967	745.16986	1731.46545	655.13007	939.3327	1347.71863	628.4458	927.96454	1584.07617	487.58978	957.94757	1377.60535	472.52118	956.30853	1526.89746	642.13373	634.97339	1308.81726	679.43976	466.7915	1362.58203	627.11304	271.44153	1369.52014	588.82404	69.69386	1422.04639	544.47876	37.42727	1458.53052	737.41461	35.99954	1444.35254	594.67841	629.79742	1627.30518	637.46301	453.09164	1611.01746	489.07358	335.54303	1605.71924	316.62827	210.08888	1554.81726	271.23343	226.5387	1498.26538	360.2485	72.64146	1536.49158	547.98291	1673.30139	1426.89758	NaN	NaN	NaN	NaN	NaN	NaN	NaN	NaN	NaN	NaN	NaN	NaN	NaN	NaN	NaN	NaN	NaN	NaN	NaN	NaN	NaN
